# MagicaVoxel @ Ephtracy

# group
o 

# material
mtllib char-5.mtl
usemtl palette

# normals
vn -1 0 0
vn 1 0 0
vn 0 0 1
vn 0 0 -1
vn 0 -1 0
vn 0 1 0

# texcoords
vt 0.236328 0.5
vt 0.275391 0.5
vt 0.416016 0.5
vt 0.427734 0.5
vt 0.708984 0.5
vt 0.716797 0.5
vt 0.744141 0.5
vt 0.748047 0.5
vt 0.755859 0.5
vt 0.771484 0.5
vt 0.994141 0.5

# verts
v -0.8 0.4 0.3
v -0.8 0.4 -0.6
v -0.8 0.6 0.3
v -0.8 0.6 -0.6
v -0.7 0 0.2
v -0.7 0 -0.5
v -0.7 0.4 0.2
v -0.7 0.4 -0.5
v -0.7 0.6 0.2
v -0.7 0.6 -0.5
v -0.7 1.2 0.1
v -0.7 1.2 -0.4
v -0.7 1.6 0.1
v -0.7 1.6 -0.4
v -0.7 1.7 0.2
v -0.7 1.7 -0.5
v 0.8 0 0.2
v 0.8 0 -0.5
v 0.8 0.4 0.2
v 0.8 0.4 -0.5
v 0.8 0.6 0.2
v 0.8 0.6 -0.5
v 0.8 1.2 0.1
v 0.8 1.2 -0.4
v 0.8 1.6 0.1
v 0.8 1.6 -0.4
v 0.8 1.7 0.2
v 0.8 1.7 -0.5
v 0.9 0.4 0.3
v 0.9 0.4 -0.6
v 0.9 0.6 0.3
v 0.9 0.6 -0.6
v -0.8 0.4 0.3
v -0.8 0.6 0.3
v 0.9 0.4 0.3
v 0.9 0.6 0.3
v -0.7 0 0.2
v -0.7 0.4 0.2
v -0.7 0.6 0.2
v -0.7 1.7 0.2
v -0.3 1.6 0.2
v -0.3 1.7 0.2
v 0.4 1.6 0.2
v 0.4 1.7 0.2
v 0.8 0 0.2
v 0.8 0.4 0.2
v 0.8 0.6 0.2
v 0.8 1.7 0.2
v -0.7 0 -0.5
v -0.7 0.4 -0.5
v -0.7 0.6 -0.5
v -0.7 1.7 -0.5
v -0.6 0.2 -0.5
v -0.6 0.3 -0.5
v -0.3 0.2 -0.5
v -0.3 0.3 -0.5
v -0.3 1.3 -0.5
v -0.3 1.7 -0.5
v -0.1 0.1 -0.5
v -0.1 0.4 -0.5
v -0.1 0.6 -0.5
v 0 0 -0.5
v 0 0.1 -0.5
v 0 0.4 -0.5
v 0 0.6 -0.5
v 0.1 0 -0.5
v 0.1 0.4 -0.5
v 0.1 0.6 -0.5
v 0.2 0 -0.5
v 0.2 0.4 -0.5
v 0.2 0.6 -0.5
v 0.4 0.2 -0.5
v 0.4 0.3 -0.5
v 0.4 1.3 -0.5
v 0.4 1.7 -0.5
v 0.7 0.2 -0.5
v 0.7 0.3 -0.5
v 0.8 0 -0.5
v 0.8 0.4 -0.5
v 0.8 0.6 -0.5
v 0.8 1.7 -0.5
v -0.8 0.4 -0.6
v -0.8 0.6 -0.6
v -0.1 0.4 -0.6
v -0.1 0.6 -0.6
v 0 0.4 -0.6
v 0 0.6 -0.6
v 0.1 0.4 -0.6
v 0.1 0.6 -0.6
v 0.2 0.4 -0.6
v 0.2 0.6 -0.6
v 0.9 0.4 -0.6
v 0.9 0.6 -0.6
v -0.7 0 0.2
v 0.8 0 0.2
v 0 0 -0.4
v 0.1 0 -0.4
v 0.2 0 -0.4
v -0.7 0 -0.5
v 0 0 -0.5
v 0.1 0 -0.5
v 0.2 0 -0.5
v 0.8 0 -0.5
v -0.8 0.4 0.3
v 0.9 0.4 0.3
v -0.7 0.4 0.2
v 0.8 0.4 0.2
v -0.7 0.4 -0.5
v -0.1 0.4 -0.5
v 0 0.4 -0.5
v 0.1 0.4 -0.5
v 0.2 0.4 -0.5
v 0.8 0.4 -0.5
v -0.8 0.4 -0.6
v -0.1 0.4 -0.6
v 0 0.4 -0.6
v 0.1 0.4 -0.6
v 0.2 0.4 -0.6
v 0.9 0.4 -0.6
v -0.8 0.6 0.3
v 0.9 0.6 0.3
v -0.7 0.6 0.2
v 0.8 0.6 0.2
v -0.7 0.6 -0.5
v -0.1 0.6 -0.5
v 0 0.6 -0.5
v 0.1 0.6 -0.5
v 0.2 0.6 -0.5
v 0.8 0.6 -0.5
v -0.8 0.6 -0.6
v -0.1 0.6 -0.6
v 0 0.6 -0.6
v 0.1 0.6 -0.6
v 0.2 0.6 -0.6
v 0.9 0.6 -0.6
v -0.7 1.7 0.2
v -0.3 1.7 0.2
v 0.4 1.7 0.2
v 0.8 1.7 0.2
v -0.7 1.7 -0.5
v -0.3 1.7 -0.5
v 0.4 1.7 -0.5
v 0.8 1.7 -0.5

# faces
f 3/5/1 2/5/1 1/5/1
f 4/5/1 2/5/1 3/5/1
f 7/10/1 6/10/1 5/10/1
f 8/10/1 6/10/1 7/10/1
f 11/8/1 10/8/1 9/8/1
f 12/8/1 10/8/1 11/8/1
f 13/8/1 11/8/1 9/8/1
f 13/6/1 12/6/1 11/6/1
f 14/8/1 10/8/1 12/8/1
f 14/6/1 12/6/1 13/6/1
f 15/8/1 13/8/1 9/8/1
f 15/8/1 14/8/1 13/8/1
f 16/8/1 10/8/1 14/8/1
f 16/8/1 14/8/1 15/8/1
f 17/10/2 18/10/2 19/10/2
f 19/10/2 18/10/2 20/10/2
f 21/8/2 22/8/2 23/8/2
f 23/8/2 22/8/2 24/8/2
f 21/8/2 23/8/2 25/8/2
f 23/6/2 24/6/2 25/6/2
f 24/8/2 22/8/2 26/8/2
f 25/6/2 24/6/2 26/6/2
f 21/8/2 25/8/2 27/8/2
f 25/8/2 26/8/2 27/8/2
f 26/8/2 22/8/2 28/8/2
f 27/8/2 26/8/2 28/8/2
f 29/5/2 30/5/2 31/5/2
f 31/5/2 30/5/2 32/5/2
f 35/5/3 34/5/3 33/5/3
f 36/5/3 34/5/3 35/5/3
f 41/8/3 40/8/3 39/8/3
f 42/8/3 40/8/3 41/8/3
f 43/8/3 41/8/3 39/8/3
f 43/2/3 42/2/3 41/2/3
f 44/2/3 42/2/3 43/2/3
f 45/10/3 38/10/3 37/10/3
f 46/10/3 38/10/3 45/10/3
f 47/8/3 43/8/3 39/8/3
f 47/8/3 44/8/3 43/8/3
f 48/8/3 44/8/3 47/8/3
f 49/10/4 50/10/4 53/10/4
f 53/10/4 50/10/4 54/10/4
f 49/10/4 53/10/4 55/10/4
f 53/7/4 54/7/4 55/7/4
f 54/10/4 50/10/4 56/10/4
f 55/7/4 54/7/4 56/7/4
f 51/8/4 52/8/4 57/8/4
f 57/8/4 52/8/4 58/8/4
f 49/10/4 55/10/4 59/10/4
f 55/10/4 56/10/4 59/10/4
f 56/10/4 50/10/4 60/10/4
f 59/10/4 56/10/4 60/10/4
f 51/8/4 57/8/4 61/8/4
f 49/10/4 59/10/4 62/10/4
f 59/9/4 60/9/4 63/9/4
f 62/10/4 59/10/4 63/10/4
f 63/9/4 60/9/4 64/9/4
f 61/8/4 57/8/4 65/8/4
f 63/9/4 64/9/4 66/9/4
f 62/9/4 63/9/4 66/9/4
f 66/9/4 64/9/4 67/9/4
f 65/8/4 57/8/4 68/8/4
f 66/11/4 67/11/4 69/11/4
f 69/11/4 67/11/4 70/11/4
f 68/8/4 57/8/4 71/8/4
f 69/10/4 70/10/4 72/10/4
f 72/10/4 70/10/4 73/10/4
f 71/8/4 57/8/4 74/8/4
f 57/2/4 58/2/4 74/2/4
f 74/2/4 58/2/4 75/2/4
f 72/7/4 73/7/4 76/7/4
f 69/10/4 72/10/4 76/10/4
f 73/10/4 70/10/4 77/10/4
f 76/7/4 73/7/4 77/7/4
f 69/10/4 76/10/4 78/10/4
f 76/10/4 77/10/4 78/10/4
f 77/10/4 70/10/4 79/10/4
f 78/10/4 77/10/4 79/10/4
f 74/8/4 75/8/4 80/8/4
f 71/8/4 74/8/4 80/8/4
f 80/8/4 75/8/4 81/8/4
f 82/5/4 83/5/4 84/5/4
f 84/5/4 83/5/4 85/5/4
f 84/4/4 85/4/4 86/4/4
f 86/4/4 85/4/4 87/4/4
f 86/3/4 87/3/4 88/3/4
f 88/3/4 87/3/4 89/3/4
f 88/4/4 89/4/4 90/4/4
f 90/4/4 89/4/4 91/4/4
f 90/5/4 91/5/4 92/5/4
f 92/5/4 91/5/4 93/5/4
f 96/10/5 95/10/5 94/10/5
f 97/10/5 95/10/5 96/10/5
f 98/10/5 95/10/5 97/10/5
f 99/10/5 96/10/5 94/10/5
f 100/9/5 97/9/5 96/9/5
f 100/10/5 96/10/5 99/10/5
f 101/11/5 98/11/5 97/11/5
f 101/9/5 97/9/5 100/9/5
f 102/10/5 95/10/5 98/10/5
f 102/11/5 98/11/5 101/11/5
f 103/10/5 95/10/5 102/10/5
f 106/5/5 105/5/5 104/5/5
f 107/5/5 105/5/5 106/5/5
f 108/5/5 106/5/5 104/5/5
f 113/5/5 105/5/5 107/5/5
f 114/5/5 108/5/5 104/5/5
f 114/5/5 109/5/5 108/5/5
f 115/4/5 110/4/5 109/4/5
f 115/5/5 109/5/5 114/5/5
f 116/3/5 111/3/5 110/3/5
f 116/4/5 110/4/5 115/4/5
f 117/4/5 112/4/5 111/4/5
f 117/3/5 111/3/5 116/3/5
f 118/5/5 113/5/5 112/5/5
f 118/4/5 112/4/5 117/4/5
f 119/5/5 105/5/5 113/5/5
f 119/5/5 113/5/5 118/5/5
f 120/5/6 121/5/6 122/5/6
f 122/5/6 121/5/6 123/5/6
f 120/5/6 122/5/6 124/5/6
f 123/5/6 121/5/6 129/5/6
f 120/5/6 124/5/6 130/5/6
f 124/5/6 125/5/6 130/5/6
f 125/4/6 126/4/6 131/4/6
f 130/5/6 125/5/6 131/5/6
f 126/3/6 127/3/6 132/3/6
f 131/4/6 126/4/6 132/4/6
f 127/4/6 128/4/6 133/4/6
f 132/3/6 127/3/6 133/3/6
f 128/5/6 129/5/6 134/5/6
f 133/4/6 128/4/6 134/4/6
f 129/5/6 121/5/6 135/5/6
f 134/5/6 129/5/6 135/5/6
f 136/8/6 137/8/6 140/8/6
f 137/2/6 138/2/6 141/2/6
f 140/8/6 137/8/6 141/8/6
f 138/8/6 139/8/6 142/8/6
f 141/2/6 138/2/6 142/2/6
f 142/8/6 139/8/6 143/8/6
