# MagicaVoxel @ Ephtracy

# group
o 

# material
mtllib char-4.mtl
usemtl palette

# normals
vn -1 0 0
vn 1 0 0
vn 0 0 1
vn 0 0 -1
vn 0 -1 0
vn 0 1 0

# texcoords
vt 0.677734 0.5
vt 0.744141 0.5
vt 0.771484 0.5
vt 0.798828 0.5
vt 0.927734 0.5

# verts
v -0.2 0.1 0.3
v -0.2 0.1 -0.5
v -0.2 0.2 0.3
v -0.2 0.2 -0.5
v -0.2 0.3 0.2
v -0.2 0.3 0
v -0.2 0.3 -0.2
v -0.2 0.3 -0.4
v -0.2 0.3 -0.5
v -0.2 0.4 0.3
v -0.2 0.4 0.2
v -0.2 0.4 0
v -0.2 0.4 -0.1
v -0.2 0.4 -0.2
v -0.2 0.4 -0.4
v -0.2 0.5 0.3
v -0.2 0.5 -0.1
v -0.2 1.5 0.3
v -0.2 1.5 -0.1
v -0.1 0.3 -0.4
v -0.1 0.3 -0.5
v -0.1 0.4 -0.4
v -0.1 0.4 -0.5
v 0.1 0.3 -0.4
v 0.1 0.3 -0.5
v 0.1 0.4 -0.4
v 0.1 0.4 -0.5
v 0.2 0.1 0.3
v 0.2 0.1 -0.5
v 0.2 0.2 0.3
v 0.2 0.2 -0.5
v 0.2 0.3 0.2
v 0.2 0.3 0
v 0.2 0.3 -0.2
v 0.2 0.3 -0.4
v 0.2 0.3 -0.5
v 0.2 0.4 0.3
v 0.2 0.4 0.2
v 0.2 0.4 0
v 0.2 0.4 -0.1
v 0.2 0.4 -0.2
v 0.2 0.4 -0.4
v 0.2 0.5 0.3
v 0.2 0.5 -0.1
v 0.2 1.5 0.3
v 0.2 1.5 -0.1
v -0.2 0.1 0.3
v -0.2 0.2 0.3
v -0.2 0.4 0.3
v -0.2 0.5 0.3
v -0.2 1.5 0.3
v 0.2 0.1 0.3
v 0.2 0.2 0.3
v 0.2 0.4 0.3
v 0.2 0.5 0.3
v 0.2 1.5 0.3
v -0.2 0.4 -0.1
v -0.2 0.5 -0.1
v -0.2 1.5 -0.1
v 0.2 0.4 -0.1
v 0.2 0.5 -0.1
v 0.2 1.5 -0.1
v -0.2 0.3 -0.4
v -0.2 0.4 -0.4
v -0.1 0.3 -0.4
v -0.1 0.4 -0.4
v 0.1 0.3 -0.4
v 0.1 0.4 -0.4
v 0.2 0.3 -0.4
v 0.2 0.4 -0.4
v -0.2 0.1 -0.5
v -0.2 0.2 -0.5
v -0.2 0.3 -0.5
v -0.1 0.3 -0.5
v -0.1 0.4 -0.5
v 0.1 0.3 -0.5
v 0.1 0.4 -0.5
v 0.2 0.1 -0.5
v 0.2 0.2 -0.5
v 0.2 0.3 -0.5
v -0.2 0.1 0.3
v 0.2 0.1 0.3
v -0.2 0.1 -0.5
v 0.2 0.1 -0.5
v -0.2 0.3 -0.4
v -0.1 0.3 -0.4
v 0.1 0.3 -0.4
v 0.2 0.3 -0.4
v -0.2 0.3 -0.5
v -0.1 0.3 -0.5
v 0.1 0.3 -0.5
v 0.2 0.3 -0.5
v -0.2 0.4 -0.1
v 0.2 0.4 -0.1
v -0.2 0.4 -0.2
v 0.2 0.4 -0.2
v -0.2 0.4 -0.4
v -0.1 0.4 -0.4
v 0.1 0.4 -0.4
v 0.2 0.4 -0.4
v -0.1 0.4 -0.5
v 0.1 0.4 -0.5
v -0.2 1.5 0.3
v 0.2 1.5 0.3
v -0.2 1.5 -0.1
v 0.2 1.5 -0.1

# faces
f 3/5/1 2/5/1 1/5/1
f 4/5/1 2/5/1 3/5/1
f 5/4/1 4/4/1 3/4/1
f 6/4/1 4/4/1 5/4/1
f 7/4/1 4/4/1 6/4/1
f 8/4/1 4/4/1 7/4/1
f 9/4/1 4/4/1 8/4/1
f 10/4/1 5/4/1 3/4/1
f 11/3/1 6/3/1 5/3/1
f 11/4/1 5/4/1 10/4/1
f 12/4/1 7/4/1 6/4/1
f 12/3/1 6/3/1 11/3/1
f 13/4/1 7/4/1 12/4/1
f 14/5/1 8/5/1 7/5/1
f 14/4/1 7/4/1 13/4/1
f 15/5/1 8/5/1 14/5/1
f 16/2/1 11/2/1 10/2/1
f 16/2/1 13/2/1 12/2/1
f 16/2/1 12/2/1 11/2/1
f 17/2/1 13/2/1 16/2/1
f 18/3/1 17/3/1 16/3/1
f 19/3/1 17/3/1 18/3/1
f 22/5/1 21/5/1 20/5/1
f 23/5/1 21/5/1 22/5/1
f 24/5/2 25/5/2 26/5/2
f 26/5/2 25/5/2 27/5/2
f 28/5/2 29/5/2 30/5/2
f 30/5/2 29/5/2 31/5/2
f 30/4/2 31/4/2 32/4/2
f 32/4/2 31/4/2 33/4/2
f 33/4/2 31/4/2 34/4/2
f 34/4/2 31/4/2 35/4/2
f 35/4/2 31/4/2 36/4/2
f 30/4/2 32/4/2 37/4/2
f 32/3/2 33/3/2 38/3/2
f 37/4/2 32/4/2 38/4/2
f 33/4/2 34/4/2 39/4/2
f 38/3/2 33/3/2 39/3/2
f 39/4/2 34/4/2 40/4/2
f 34/5/2 35/5/2 41/5/2
f 40/4/2 34/4/2 41/4/2
f 41/5/2 35/5/2 42/5/2
f 37/2/2 38/2/2 43/2/2
f 39/2/2 40/2/2 43/2/2
f 38/2/2 39/2/2 43/2/2
f 43/2/2 40/2/2 44/2/2
f 43/3/2 44/3/2 45/3/2
f 45/3/2 44/3/2 46/3/2
f 52/5/3 48/5/3 47/5/3
f 53/4/3 49/4/3 48/4/3
f 53/5/3 48/5/3 52/5/3
f 54/2/3 50/2/3 49/2/3
f 54/4/3 49/4/3 53/4/3
f 55/3/3 51/3/3 50/3/3
f 55/2/3 50/2/3 54/2/3
f 56/3/3 51/3/3 55/3/3
f 57/2/4 58/2/4 60/2/4
f 58/3/4 59/3/4 61/3/4
f 60/2/4 58/2/4 61/2/4
f 61/3/4 59/3/4 62/3/4
f 63/5/4 64/5/4 65/5/4
f 65/5/4 64/5/4 66/5/4
f 67/5/4 68/5/4 69/5/4
f 69/5/4 68/5/4 70/5/4
f 72/4/4 73/4/4 74/4/4
f 72/4/4 74/4/4 76/4/4
f 74/5/4 75/5/4 76/5/4
f 76/5/4 75/5/4 77/5/4
f 71/5/4 72/5/4 78/5/4
f 72/4/4 76/4/4 79/4/4
f 78/5/4 72/5/4 79/5/4
f 79/4/4 76/4/4 80/4/4
f 83/5/5 82/5/5 81/5/5
f 84/5/5 82/5/5 83/5/5
f 85/4/6 86/4/6 89/4/6
f 89/4/6 86/4/6 90/4/6
f 87/4/6 88/4/6 91/4/6
f 91/4/6 88/4/6 92/4/6
f 93/4/6 94/4/6 95/4/6
f 95/4/6 94/4/6 96/4/6
f 95/5/6 96/5/6 97/5/6
f 97/5/6 96/5/6 98/5/6
f 98/5/6 96/5/6 99/5/6
f 99/5/6 96/5/6 100/5/6
f 98/5/6 99/5/6 101/5/6
f 101/5/6 99/5/6 102/5/6
f 103/3/6 104/3/6 105/3/6
f 105/3/6 104/3/6 106/3/6
